<svg width="289" height="391" viewBox="0 0 289 391" fill="none" xmlns="http://www.w3.org/2000/svg">
<path d="M128.892 0.71022C106.376 3.41211 86.2346 11.4359 70.146 24.2085C51.4375 39.028 37.8871 61.1754 31.4189 87.4165C27.4479 103.587 25.7695 121.231 25.442 149.888L25.2373 168.514L22.5763 170.561C13.3653 177.684 6.36497 189.106 2.80338 202.779C0.961179 209.82 0.347112 214.487 0.060548 222.593C-0.389768 236.921 1.65712 249.448 6.69247 263.162C10.0494 272.21 17.1725 284.778 23.1904 292.351C25.5238 295.258 32.4014 301.685 36.2905 304.632C38.5011 306.311 38.8696 306.802 40.4661 310.446C47.139 325.756 58.6834 338.693 74.4445 348.477C78.2517 350.81 87.5446 355.682 90.3284 356.746L92.0478 357.442V362.437C92.0478 370.01 91.9659 370.338 89.4277 371.484C87.7493 372.262 80.1758 376.724 75.7955 379.549C74.5264 380.367 73.2164 382.905 73.2164 384.543C73.2164 386.59 74.4854 388.596 76.4914 389.66C79.6436 391.339 80.2167 391.134 89.3458 385.321C92.9484 383.028 96.3053 381.063 96.7965 380.94C97.9428 380.654 99.5394 381.473 106.703 386.058C109.856 388.064 113.172 389.906 114.031 390.151C118.985 391.502 123.201 386.14 120.704 381.718C120.008 380.408 118.698 379.426 114.277 376.724C111.248 374.841 107.522 372.671 105.967 371.852C103.183 370.338 103.183 370.338 102.937 368.291C102.814 367.144 102.692 365.057 102.733 363.624C102.773 361.208 102.814 361.045 103.633 361.249C104.124 361.331 106.949 361.986 109.856 362.682C120.581 365.179 129.915 366.121 145.062 366.121C159.063 366.162 168.356 365.22 180.432 362.518C182.971 361.945 185.345 361.372 185.632 361.249C186.082 361.086 186.205 361.904 186.205 365.671V370.338L184.444 371.074C182.193 372.016 171.18 378.894 169.748 380.245C166.595 383.233 167.537 387.982 171.631 389.824C174.824 391.257 175.479 391.052 185.14 384.748C188.456 382.578 191.649 380.777 192.182 380.777C192.714 380.777 196.193 382.824 200.164 385.444C208.147 390.766 209.294 391.175 212.2 389.783C216.294 387.818 217.072 382.332 213.674 379.671C212.241 378.525 200.042 371.279 198.936 370.911C197.422 370.379 197.258 369.519 197.258 362.682V357.36L199.018 356.705C204.422 354.617 214.288 349.132 219.282 345.488C233.938 334.763 241.962 325.019 248.799 309.709C250.231 306.556 250.477 306.229 253.752 303.773C271.847 290.181 285.643 264.595 288.59 239.132C289.163 234.219 289.122 221.16 288.549 215.675C286.543 196.598 278.478 179.895 266.893 170.725L263.577 168.105V158.689C263.536 136.665 262.513 116.892 260.671 104.037C256.495 74.603 246.138 51.4731 229.271 33.9517C210.89 14.8747 187.474 3.73963 159.309 0.669296C152.063 -0.108523 135.565 -0.108536 128.892 0.71022ZM164.712 12.091C172.081 13.401 180.187 15.4478 185.672 17.4947C199.632 22.6529 214.779 32.8055 223.54 42.8761C226.283 46.0284 232.464 53.8884 232.464 54.2159C232.464 54.2978 230.95 53.6019 229.067 52.6603C214.615 45.619 194.883 47.7068 181.251 57.8185C177.894 60.3157 172.572 65.8013 170.321 69.1582C168.192 72.2286 165.736 77.1411 164.589 80.5799C162.665 86.2293 162.256 88.8084 162.256 95.8906V102.686L159.145 101.131C150.753 96.8731 139.945 96.7503 131.143 100.721C129.588 101.458 127.991 102.318 127.541 102.686C126.804 103.382 126.804 103.259 127.09 98.92C127.705 88.5627 124.88 78.2055 119.026 69.4448C115.996 64.9417 110.552 59.3332 106.581 56.6722C101.218 53.0697 94.2993 50.2859 87.954 49.1397C83.6555 48.3619 74.1989 48.4846 70.2279 49.3443C66.3388 50.204 60.5257 52.169 58.1922 53.4791C57.2097 54.0112 56.4319 54.3388 56.4319 54.2569C56.4319 53.8475 61.631 47.1746 64.9879 43.2855C78.3336 27.852 98.8844 16.7169 121.81 12.5413C130.529 10.9447 133.313 10.74 146.495 10.9038C157.384 10.9856 159.186 11.1085 164.712 12.091ZM84.3514 59.0057C100.931 60.9297 113.417 72.7198 116.651 89.6271C117.347 93.2297 116.897 101.827 115.874 105.265C113.499 113.248 109.16 119.635 102.487 124.997C98.9253 127.863 92.9074 130.647 87.7902 131.752C83.983 132.612 75.9592 132.612 72.1929 131.752C59.1747 128.927 48.6537 119.471 44.6418 107.067C41.7761 98.265 42.554 87.4984 46.6477 78.8605C50.5778 70.5092 59.9935 62.7719 69.3273 60.1929C74.8129 58.6782 78.8248 58.3916 84.3514 59.0057ZM219.201 60.0291C228.862 62.4854 238.073 69.5676 241.962 77.5505C249.331 92.6156 247.202 109.277 236.394 120.781C225.177 132.694 207.001 135.969 192.55 128.723C184.813 124.834 179.327 119.225 175.561 111.365C172.941 105.798 172.163 102.359 172.163 95.645C172.163 88.8493 172.941 85.4105 175.725 79.6793C179.041 72.9245 183.626 67.9301 190.217 63.9591C193.901 61.7485 199.919 59.6197 204.094 59.0466C208.147 58.4735 214.82 58.9238 219.201 60.0291ZM151.039 108.459C155.583 110.055 158.981 112.511 161.683 116.155C164.344 119.798 165.244 122.132 165.408 126.144L165.531 129.582L162.788 130.729C156.484 133.39 147.478 135.027 141.992 134.536C136.179 134.004 127.582 131.711 124.511 129.828C123.242 129.05 123.201 128.927 123.406 127.085C123.815 123.565 125.166 119.757 126.886 117.178C129.833 112.757 135.565 108.745 140.395 107.722C143.015 107.189 148.378 107.558 151.039 108.459ZM37.8871 116.646C39.6474 120.371 43.1271 125.12 46.8115 128.805C55.8495 137.924 66.9712 142.509 79.9315 142.519C79.9447 142.519 79.9579 142.519 79.9711 142.519C92.0068 142.519 103.51 138.016 112.189 129.91L114.077 128.14L114.154 128.068V131.179C114.154 134.945 115.096 142.519 116.242 147.8C118.534 158.28 122.997 167 129.301 173.222C133.752 177.636 138.409 179.692 143.895 179.701C144.413 179.702 144.938 179.685 145.472 179.649C154.969 178.994 162.952 172.526 168.356 161.145C171.917 153.695 174.701 140.636 174.742 131.588V127.896V127.822L176.912 129.91C181.783 134.577 187.597 138.097 194.024 140.226C198.583 141.752 203.623 142.506 208.69 142.51C215.18 142.515 221.715 141.289 227.347 138.875C237.582 134.536 245.851 126.799 251.132 116.728L252.257 114.594L252.319 114.476L252.606 116.728C254.366 131.22 255.144 208.47 253.752 233.401C251.459 275.075 245.524 299.515 233.201 317.855C219.078 338.856 194.72 351.629 161.437 355.477C158.585 355.805 152.649 355.978 146.507 355.997C146.109 355.998 145.709 355.999 145.309 355.999H145.305C138.783 355.998 132.24 355.824 129.096 355.477C108.628 353.185 89.264 346.757 76.1229 337.874C51.1509 321.008 40.3433 296.158 36.2086 245.887C34.7314 228.194 34.1479 200.671 34.5548 171.615C34.6328 166.047 34.7472 160.422 34.8986 154.8C35.4975 131.844 36.2521 115.507 36.7068 114.711C36.7183 114.691 36.7297 114.681 36.7408 114.681C36.8636 114.722 37.3958 115.582 37.8871 116.646ZM163.73 144.525C162.584 150.338 161.192 154.554 158.858 159.058C152.922 170.356 143.711 173.631 136.424 166.959C132.453 163.356 129.26 157.911 127.418 151.648C126.395 148.045 124.757 140.39 124.962 140.144C125.044 140.103 126.517 140.513 128.237 141.045C134.009 142.928 137.98 143.542 144.857 143.501C150.179 143.501 151.94 143.297 155.706 142.437C158.203 141.823 161.151 141.004 162.256 140.595C163.402 140.144 164.385 139.858 164.426 139.899C164.508 139.94 164.18 142.027 163.73 144.525ZM268.285 186.363C275.981 197.089 280.034 212.195 279.42 228.283C278.56 250.267 271.683 269.672 259.156 285.269C257.641 287.111 256.413 288.585 256.331 288.544C256.29 288.462 256.577 287.07 257.027 285.392C261.366 268.239 263.577 241.138 263.7 202.615L263.782 181.041L264.887 182.106C265.46 182.679 267.016 184.603 268.285 186.363ZM25.0735 189.884C24.8279 198.399 25.3601 224.517 26.1379 240.36C26.5882 249.121 27.6526 259.642 29.0445 269.017C29.9042 274.789 32.4833 287.561 32.8927 288.257C33.5886 289.363 32.6061 288.38 30.6001 285.883C17.8275 270.367 10.6634 251.127 9.51718 229.266C8.73936 214.733 12.7513 197.949 19.3422 188.205C21.3482 185.217 24.4595 181.532 25.0326 181.451C25.1963 181.41 25.2373 185.217 25.0735 189.884Z" fill="black"/>
<path d="M151.039 108.459C155.583 110.055 158.981 112.511 161.683 116.155C164.344 119.798 165.244 122.132 165.408 126.144L165.531 129.582L162.788 130.729C156.484 133.39 147.478 135.027 141.992 134.536C136.179 134.004 127.582 131.711 124.511 129.828C123.242 129.05 123.201 128.927 123.406 127.085C123.815 123.565 125.166 119.757 126.886 117.178C129.833 112.757 135.565 108.745 140.395 107.722C143.015 107.189 148.378 107.558 151.039 108.459Z" fill="#F1C3BC"/>
<path d="M25.0735 189.884C24.8279 198.399 25.3601 224.517 26.1379 240.36C26.5882 249.121 27.6526 259.642 29.0445 269.017C29.9042 274.789 32.4833 287.561 32.8927 288.257C33.5886 289.363 32.6061 288.38 30.6001 285.883C17.8275 270.367 10.6634 251.127 9.51718 229.266C8.73936 214.733 12.7513 197.949 19.3422 188.205C21.3482 185.217 24.4595 181.532 25.0326 181.451C25.1963 181.41 25.2373 185.217 25.0735 189.884Z" fill="#65A63F"/>
<path d="M268.285 186.363C275.981 197.089 280.034 212.195 279.42 228.283C278.56 250.267 271.683 269.672 259.156 285.269C257.641 287.111 256.413 288.585 256.331 288.544C256.29 288.462 256.577 287.07 257.027 285.392C261.366 268.239 263.577 241.138 263.7 202.615L263.782 181.041L264.887 182.106C265.46 182.679 267.016 184.603 268.285 186.363Z" fill="#65A63F"/>
<path d="M164.712 12.091C172.081 13.401 180.187 15.4478 185.672 17.4947C199.632 22.6529 214.779 32.8055 223.54 42.8761C226.283 46.0284 232.464 53.8884 232.464 54.2159C232.464 54.2978 230.95 53.6019 229.067 52.6603C214.615 45.619 194.883 47.7068 181.251 57.8185C177.894 60.3157 172.572 65.8013 170.321 69.1582C168.192 72.2286 165.736 77.1411 164.589 80.5799C162.665 86.2293 162.256 88.8084 162.256 95.8906V102.686L159.145 101.131C150.753 96.8731 139.945 96.7503 131.143 100.721C129.588 101.458 127.991 102.318 127.541 102.686C126.804 103.382 126.804 103.259 127.09 98.92C127.705 88.5627 124.88 78.2055 119.026 69.4448C115.996 64.9417 110.552 59.3332 106.581 56.6722C101.218 53.0697 94.2993 50.2859 87.954 49.1397C83.6555 48.3619 74.1989 48.4846 70.2279 49.3443C66.3388 50.204 60.5257 52.169 58.1922 53.4791C57.2097 54.0112 56.4319 54.3388 56.4319 54.2569C56.4319 53.8475 61.631 47.1746 64.9879 43.2855C78.3336 27.852 98.8844 16.7169 121.81 12.5413C130.529 10.9447 133.313 10.74 146.495 10.9038C157.384 10.9856 159.186 11.1085 164.712 12.091Z" fill="#FD8E2D"/>
<path d="M163.73 144.525C162.584 150.338 161.192 154.554 158.858 159.058C152.922 170.356 143.711 173.631 136.424 166.959C132.453 163.356 129.26 157.911 127.418 151.648C126.395 148.045 124.757 140.39 124.962 140.144C125.044 140.103 126.517 140.513 128.237 141.045C134.009 142.928 137.98 143.542 144.857 143.501C150.179 143.501 151.94 143.297 155.706 142.437C158.203 141.823 161.151 141.004 162.256 140.595C163.402 140.144 164.385 139.858 164.426 139.899C164.508 139.94 164.18 142.027 163.73 144.525Z" fill="#F1C3BC"/>
<path fill-rule="evenodd" clip-rule="evenodd" d="M46.8115 128.805C43.1271 125.12 39.6474 120.371 37.8871 116.646C37.3958 115.582 36.8636 114.722 36.7408 114.681C36.7297 114.681 36.7183 114.691 36.7068 114.711C36.6895 114.695 36.6751 114.685 36.6641 114.681C36.2138 114.681 35.436 131.261 34.8219 154.8C33.8804 189.761 34.3716 224.804 36.1319 245.887C40.2667 296.158 51.0742 321.008 76.0463 337.874C89.1873 346.757 108.551 353.185 129.02 355.477C132.176 355.826 138.757 356 145.305 355.999C138.783 355.998 132.24 355.824 129.096 355.477C108.628 353.185 89.264 346.757 76.1229 337.874C51.1509 321.008 40.3433 296.158 36.2086 245.887C34.7314 228.194 34.1479 200.671 34.5548 171.615C55.833 187.741 102.067 214.8 145.472 214.569C164.263 214.109 211.396 204.635 254.282 170.913C254.526 195.223 254.374 220.895 253.675 233.401C251.383 275.075 245.447 299.515 233.125 317.855C219.001 338.856 194.643 351.629 161.361 355.477C158.521 355.803 152.622 355.977 146.507 355.997C152.649 355.978 158.585 355.805 161.437 355.477C194.72 351.629 219.078 338.856 233.201 317.855C245.524 299.515 251.459 275.075 253.752 233.401C255.144 208.47 254.366 131.22 252.606 116.728L252.319 114.476L252.257 114.594L252.243 114.476L251.055 116.728C245.774 126.799 237.505 134.536 227.27 138.875C221.661 141.279 215.155 142.505 208.69 142.51C203.623 142.506 198.583 141.752 194.024 140.226C187.597 138.097 181.783 134.577 176.912 129.91L174.742 127.822V127.896L174.665 127.822V131.588C174.624 140.636 171.841 153.695 168.279 161.145C162.875 172.526 154.892 178.994 145.395 179.649C144.888 179.683 144.388 179.7 143.895 179.701C138.409 179.692 133.752 177.636 129.301 173.222C122.997 167 118.534 158.28 116.242 147.8C115.096 142.519 114.154 134.945 114.154 131.179V128.068L114.077 128.14V128.068L112.112 129.91C103.443 138.007 91.9537 142.51 79.9315 142.519C66.9712 142.509 55.8495 137.924 46.8115 128.805Z" fill="#FFC83A"/>
<path d="M129.096 355.477C108.628 353.185 89.264 346.757 76.1229 337.874C51.1509 321.008 40.3433 296.158 36.2086 245.887C34.7314 228.194 34.1479 200.671 34.5548 171.615C55.833 187.741 102.067 214.8 145.472 214.569C164.263 214.109 211.396 204.635 254.282 170.913C254.526 195.223 254.374 220.895 253.675 233.401C251.383 275.075 245.447 299.515 233.125 317.855C219.001 338.856 194.643 351.629 161.361 355.477C158.521 355.803 152.622 355.977 146.507 355.997C146.109 355.998 145.709 355.999 145.309 355.999H145.305C138.783 355.998 132.24 355.824 129.096 355.477Z" fill="#FFE75E"/>
<path d="M219.201 60.0291C228.862 62.4854 238.073 69.5676 241.962 77.5505C249.331 92.6156 247.202 109.277 236.394 120.781C225.177 132.694 207.001 135.969 192.55 128.723C184.813 124.834 179.327 119.225 175.561 111.365C172.941 105.798 172.163 102.359 172.163 95.645C172.163 88.8493 172.941 85.4105 175.725 79.6793C179.041 72.9245 183.626 67.9301 190.217 63.9591C193.901 61.7485 199.919 59.6197 204.094 59.0466C208.147 58.4735 214.82 58.9238 219.201 60.0291Z" fill="white"/>
<path d="M84.3514 59.0057C100.931 60.9297 113.417 72.7198 116.651 89.6271C117.347 93.2297 116.897 101.827 115.874 105.265C113.499 113.248 109.16 119.635 102.487 124.997C98.9253 127.863 92.9074 130.647 87.7902 131.752C83.983 132.612 75.9592 132.612 72.1929 131.752C59.1747 128.927 48.6537 119.471 44.6418 107.067C41.7761 98.265 42.554 87.4984 46.6477 78.8605C50.5778 70.5092 59.9935 62.7719 69.3273 60.1929C74.8129 58.6782 78.8248 58.3916 84.3514 59.0057Z" fill="white"/>
<path d="M64.061 78.2647C61.3181 79.2063 60.0491 80.025 57.8794 82.3175C55.0956 85.2651 54.2359 87.5985 54.2359 92.2654C54.2359 95.4995 54.3997 96.2364 55.3822 98.1195C56.8969 100.985 59.3531 103.36 62.1778 104.711C64.1019 105.611 65.0435 105.775 68.1547 105.775C71.3479 105.775 72.1257 105.611 74.1317 104.629C82.8105 100.371 84.6936 88.8267 77.857 81.99C74.3364 78.4694 68.3594 76.8319 64.061 78.2647Z" fill="black"/>
<path d="M219.047 69.7266C212.988 71.8963 209.59 76.6451 209.549 82.9904C209.508 87.3298 210.613 90.1955 213.356 92.9383C216.59 96.1315 218.719 97.0321 223.427 97.0321C227.07 97.0321 227.48 96.9502 229.895 95.6402C232.924 94.0027 234.603 92.2014 236.077 89.0492C236.977 87.1661 237.141 86.2245 237.141 83.3179C237.141 80.3295 236.977 79.4698 235.954 77.2591C234.603 74.3116 231.614 71.3641 228.749 70.136C226.047 68.9488 221.707 68.785 219.047 69.7266Z" fill="black"/>
</svg>
